<?xml version="1.0" encoding="UTF-8"?>
<svg width="75px" height="67px" viewBox="0 0 75 67" version="1.1" xmlns="http://www.w3.org/2000/svg" xmlns:xlink="http://www.w3.org/1999/xlink">
    <title>编组 16</title>
    <g id="页面-1" stroke="none" stroke-width="1" fill="none" fill-rule="evenodd">
        <g id="Other-info" transform="translate(-238.000000, -1010.000000)">
            <g id="编组-16" transform="translate(238.000000, 1010.000000)">
                <g id="编组-14" fill="#14357A">
                    <g id="编组-11备份-2">
                        <path d="M0.197225433,21.6827515 L9.13852103,9.64509666 C9.32717897,9.39110671 9.62490546,9.24137931 9.94129559,9.24137931 L32.0984224,9.24137931 C32.4226015,9.24137931 32.7266667,9.39852632 32.9141731,9.66297562 L41.4407507,21.6884201 C41.5606162,21.8574723 41.625,22.0595887 41.625,22.2668238 L41.625,66 C41.625,66.5522847 41.1772847,67 40.625,67 L1,67 C0.44771525,67 3.99185455e-15,66.5522847 0,66 L0,22.2790342 C3.97049949e-15,22.0642506 0.0691537114,21.8551743 0.197225433,21.6827515 Z" id="矩形"></path>
                        <rect id="矩形" x="17.34375" y="0" width="8.09375" height="10.3965517" rx="1"></rect>
                    </g>
                    <g id="编组-11备份-3" transform="translate(32.375000, 0.000000)">
                        <path d="M0.197225433,21.6827515 L9.13852103,9.64509666 C9.32717897,9.39110671 9.62490546,9.24137931 9.94129559,9.24137931 L32.0984224,9.24137931 C32.4226015,9.24137931 32.7266667,9.39852632 32.9141731,9.66297562 L41.4407507,21.6884201 C41.5606162,21.8574723 41.625,22.0595887 41.625,22.2668238 L41.625,66 C41.625,66.5522847 41.1772847,67 40.625,67 L1,67 C0.44771525,67 3.99185455e-15,66.5522847 0,66 L0,22.2790342 C3.97049949e-15,22.0642506 0.0691537114,21.8551743 0.197225433,21.6827515 Z" id="矩形"></path>
                        <rect id="矩形" x="17.34375" y="0" width="8.09375" height="10.3965517" rx="1"></rect>
                    </g>
                </g>
                <g id="编组-15" transform="translate(5.000000, 14.000000)" fill="#FFFFFF">
                    <polygon id="路径" points="14.6562926 11.6226915 6.37618613e-14 11.6226915 7.32814632 1.32193997e-13 24.9693776 1.32193997e-13 32.7708081 7.8176923 32.7708081 11.6226915 24.9693776 11.6226915 24.9693776 19.9962166 32.7708081 19.9962166 32.7708081 29.8799375 24.9693776 29.8799375 24.9693776 39.7636584 32.7708081 39.7636584 32.7708081 49.8197027 14.6562926 49.8197027 14.6562926 30.4613328 6.37618613e-14 30.4613328 6.37618613e-14 19.9962166 14.6562926 19.9962166"></polygon>
                    <polygon id="路径备份" transform="translate(49.156212, 24.909851) scale(-1, 1) translate(-49.156212, -24.909851) " points="47.4271007 11.6226915 32.7708081 11.6226915 40.0989544 1.32193997e-13 57.7401857 1.32193997e-13 65.5416162 7.8176923 65.5416162 11.6226915 57.7401857 11.6226915 57.7401857 19.9962166 65.5416162 19.9962166 65.5416162 29.8799375 57.7401857 29.8799375 57.7401857 39.7636584 65.5416162 39.7636584 65.5416162 49.8197027 47.4271007 49.8197027 47.4271007 30.4613328 32.7708081 30.4613328 32.7708081 19.9962166 47.4271007 19.9962166"></polygon>
                </g>
            </g>
        </g>
    </g>
</svg>